<svg id="visual" viewBox="0 0 900 600" width="900" height="600" xmlns="http://www.w3.org/2000/svg" xmlns:xlink="http://www.w3.org/1999/xlink" version="1.1"><rect x="0" y="0" width="900" height="600" fill="#90a7b7"></rect><defs><linearGradient id="grad1_0" x1="33.3%" y1="100%" x2="100%" y2="0%"><stop offset="20%" stop-color="#c2b9fd" stop-opacity="1"></stop><stop offset="80%" stop-color="#c2b9fd" stop-opacity="1"></stop></linearGradient></defs><defs><linearGradient id="grad1_1" x1="33.3%" y1="100%" x2="100%" y2="0%"><stop offset="20%" stop-color="#c2b9fd" stop-opacity="1"></stop><stop offset="80%" stop-color="#abb7ef" stop-opacity="1"></stop></linearGradient></defs><defs><linearGradient id="grad1_2" x1="33.3%" y1="100%" x2="100%" y2="0%"><stop offset="20%" stop-color="#9ab3de" stop-opacity="1"></stop><stop offset="80%" stop-color="#abb7ef" stop-opacity="1"></stop></linearGradient></defs><defs><linearGradient id="grad1_3" x1="33.3%" y1="100%" x2="100%" y2="0%"><stop offset="20%" stop-color="#9ab3de" stop-opacity="1"></stop><stop offset="80%" stop-color="#92aecb" stop-opacity="1"></stop></linearGradient></defs><defs><linearGradient id="grad1_4" x1="33.3%" y1="100%" x2="100%" y2="0%"><stop offset="20%" stop-color="#90a7b7" stop-opacity="1"></stop><stop offset="80%" stop-color="#92aecb" stop-opacity="1"></stop></linearGradient></defs><defs><linearGradient id="grad2_0" x1="0%" y1="100%" x2="66.7%" y2="0%"><stop offset="20%" stop-color="#c2b9fd" stop-opacity="1"></stop><stop offset="80%" stop-color="#c2b9fd" stop-opacity="1"></stop></linearGradient></defs><defs><linearGradient id="grad2_1" x1="0%" y1="100%" x2="66.7%" y2="0%"><stop offset="20%" stop-color="#abb7ef" stop-opacity="1"></stop><stop offset="80%" stop-color="#c2b9fd" stop-opacity="1"></stop></linearGradient></defs><defs><linearGradient id="grad2_2" x1="0%" y1="100%" x2="66.7%" y2="0%"><stop offset="20%" stop-color="#abb7ef" stop-opacity="1"></stop><stop offset="80%" stop-color="#9ab3de" stop-opacity="1"></stop></linearGradient></defs><defs><linearGradient id="grad2_3" x1="0%" y1="100%" x2="66.7%" y2="0%"><stop offset="20%" stop-color="#92aecb" stop-opacity="1"></stop><stop offset="80%" stop-color="#9ab3de" stop-opacity="1"></stop></linearGradient></defs><defs><linearGradient id="grad2_4" x1="0%" y1="100%" x2="66.7%" y2="0%"><stop offset="20%" stop-color="#92aecb" stop-opacity="1"></stop><stop offset="80%" stop-color="#90a7b7" stop-opacity="1"></stop></linearGradient></defs><g transform="translate(900, 600)"><path d="M-162.2 0C-145.3 -6.2 -128.4 -12.4 -130 -22.9C-131.6 -33.4 -151.9 -48.2 -147.5 -53.7C-143.2 -59.2 -114.3 -55.4 -106.5 -61.5C-98.8 -67.6 -112.1 -83.5 -116.4 -97.7C-120.8 -111.9 -116 -124.5 -104.3 -124.3C-92.6 -124.1 -73.9 -111 -64 -110.9C-54.1 -110.7 -53.1 -123.3 -48.6 -133.4C-44.1 -143.6 -36.1 -151.2 -27.4 -155.6C-18.8 -160 -9.4 -161.1 0 -162.2L0 0Z" fill="#90abc1"></path><path d="M-129.8 0C-116.2 -5 -102.7 -9.9 -104 -18.3C-105.3 -26.7 -121.5 -38.6 -118 -43C-114.6 -47.4 -91.4 -44.3 -85.2 -49.2C-79 -54.1 -89.7 -66.8 -93.2 -78.2C-96.6 -89.6 -92.8 -99.6 -83.4 -99.4C-74.1 -99.3 -59.1 -88.8 -51.2 -88.7C-43.3 -88.5 -42.5 -98.6 -38.9 -106.7C-35.2 -114.9 -28.9 -121 -21.9 -124.5C-15 -128 -7.5 -128.9 0 -129.8L0 0Z" fill="#95b1d5"></path><path d="M-97.3 0C-87.2 -3.7 -77 -7.5 -78 -13.8C-79 -20 -91.1 -28.9 -88.5 -32.2C-85.9 -35.5 -68.6 -33.3 -63.9 -36.9C-59.3 -40.5 -67.3 -50.1 -69.9 -58.6C-72.5 -67.2 -69.6 -74.7 -62.6 -74.6C-55.5 -74.4 -44.3 -66.6 -38.4 -66.5C-32.5 -66.4 -31.8 -74 -29.1 -80.1C-26.4 -86.1 -21.7 -90.7 -16.5 -93.4C-11.3 -96 -5.6 -96.7 0 -97.3L0 0Z" fill="#a2b6e7"></path><path d="M-64.9 0C-58.1 -2.5 -51.3 -5 -52 -9.2C-52.7 -13.4 -60.7 -19.3 -59 -21.5C-57.3 -23.7 -45.7 -22.2 -42.6 -24.6C-39.5 -27 -44.8 -33.4 -46.6 -39.1C-48.3 -44.8 -46.4 -49.8 -41.7 -49.7C-37 -49.6 -29.6 -44.4 -25.6 -44.3C-21.6 -44.3 -21.2 -49.3 -19.4 -53.4C-17.6 -57.4 -14.4 -60.5 -11 -62.2C-7.5 -64 -3.8 -64.4 0 -64.9L0 0Z" fill="#b5b8f7"></path><path d="M-32.4 0C-29.1 -1.2 -25.7 -2.5 -26 -4.6C-26.3 -6.7 -30.4 -9.6 -29.5 -10.7C-28.6 -11.8 -22.9 -11.1 -21.3 -12.3C-19.8 -13.5 -22.4 -16.7 -23.3 -19.5C-24.2 -22.4 -23.2 -24.9 -20.9 -24.9C-18.5 -24.8 -14.8 -22.2 -12.8 -22.2C-10.8 -22.1 -10.6 -24.7 -9.7 -26.7C-8.8 -28.7 -7.2 -30.2 -5.5 -31.1C-3.8 -32 -1.9 -32.2 0 -32.4L0 0Z" fill="#c2b9fd"></path></g><g transform="translate(0, 0)"><path d="M162.2 0C164.8 10.5 167.4 21 159.8 28.2C152.1 35.4 134.3 39.2 127.8 46.5C121.3 53.8 126.2 64.4 122.1 70.5C118 76.6 105.1 78 95.8 80.3C86.5 82.7 80.9 85.8 77.8 92.7C74.7 99.6 74.2 110.3 71.5 123.8C68.8 137.4 64.1 153.8 54.7 150.4C45.4 146.9 31.4 123.5 21.5 122.1C11.6 120.8 5.8 141.5 0 162.2L0 0Z" fill="#90abc1"></path><path d="M129.8 0C131.9 8.4 133.9 16.8 127.8 22.5C121.7 28.3 107.4 31.4 102.2 37.2C97 43 100.9 51.5 97.7 56.4C94.4 61.3 84 62.4 76.6 64.3C69.2 66.1 64.7 68.6 62.2 74.2C59.8 79.7 59.3 88.2 57.2 99.1C55.1 109.9 51.3 123.1 43.8 120.3C36.3 117.5 25.1 98.8 17.2 97.7C9.3 96.6 4.7 113.2 0 129.8L0 0Z" fill="#95b1d5"></path><path d="M97.3 0C98.9 6.3 100.5 12.6 95.9 16.9C91.3 21.2 80.6 23.5 76.7 27.9C72.8 32.3 75.7 38.7 73.3 42.3C70.8 45.9 63 46.8 57.5 48.2C51.9 49.6 48.5 51.5 46.7 55.6C44.8 59.8 44.5 66.2 42.9 74.3C41.3 82.4 38.4 92.3 32.8 90.2C27.2 88.1 18.9 74.1 12.9 73.3C7 72.5 3.5 84.9 0 97.3L0 0Z" fill="#a2b6e7"></path><path d="M64.9 0C65.9 4.2 67 8.4 63.9 11.3C60.9 14.1 53.7 15.7 51.1 18.6C48.5 21.5 50.5 25.8 48.8 28.2C47.2 30.6 42 31.2 38.3 32.1C34.6 33.1 32.3 34.3 31.1 37.1C29.9 39.8 29.7 44.1 28.6 49.5C27.5 55 25.6 61.5 21.9 60.1C18.1 58.7 12.6 49.4 8.6 48.8C4.7 48.3 2.3 56.6 0 64.9L0 0Z" fill="#b5b8f7"></path><path d="M32.4 0C33 2.1 33.5 4.2 32 5.6C30.4 7.1 26.9 7.8 25.6 9.3C24.3 10.8 25.2 12.9 24.4 14.1C23.6 15.3 21 15.6 19.2 16.1C17.3 16.5 16.2 17.2 15.6 18.5C14.9 19.9 14.8 22.1 14.3 24.8C13.8 27.5 12.8 30.8 10.9 30.1C9.1 29.4 6.3 24.7 4.3 24.4C2.3 24.2 1.2 28.3 0 32.4L0 0Z" fill="#c2b9fd"></path></g></svg>